<svg xmlns="http://www.w3.org/2000/svg" version="1.1" xmlns:xlink="http://www.w3.org/1999/xlink" xmlns:svgjs="http://svgjs.dev/svgjs" width="100%" height="100%" viewBox="0 0 1000 600"><rect width="1000" height="600" x="0" y="0" fill="transparent"/><g><rect width="333.3333333333333" height="333.3333333333333" rx="13.333333333333334" ry="13.333333333333334" y="207.1830093983213" fill="#b88746" transform="matrix(0.6758189685136998,0,0,0.6758189685136997,0,47.34530211188475)" x="184.9607696533203"/><path d="M270.4630734502979 430.19845398076956L270.4630734502979 430.19845398076956L270.4630734502979 424.98243769401046Q273.7823565418719 424.0340710964179 275.9161813864551 421.58412405263715Q278.05000623103837 419.1341770088563 278.05000623103837 414.86652731968985L278.05000623103837 414.86652731968985L278.05000623103837 373.928702523611L274.09847874106936 373.928702523611Q269.67276795230407 373.928702523611 266.98572925912515 376.220588467793Q264.29869056594623 378.512474411975 265.08899606394004 382.9381852007403L265.08899606394004 382.9381852007403L262.0858351715636 382.9381852007403Q259.55685757798346 378.67053551157375 259.55685757798346 373.77064142401224L259.55685757798346 373.77064142401224Q259.55685757798346 367.290136340463 262.56001847035986 363.6547310496915Q265.5631793627363 360.01932575892005 269.8308290519028 358.3596842131331Q274.09847874106936 356.70004266734605 278.05000623103837 356.0677982689511L278.05000623103837 356.0677982689511L278.05000623103837 349.90341538459944Q278.05000623103837 345.6357656954329 279.23546447802903 342.15842150426016Q280.42092272501975 338.6810773130874 284.45148076478813 334.57148872351974Q288.4820388045565 330.46190013395193 296.8592770832908 324.2975172496003L296.8592770832908 324.2975172496003Q292.74968849372306 325.0878227475941 288.16591660535903 325.0878227475941L288.16591660535903 325.0878227475941Q283.74020581659374 325.0878227475941 279.63061722702594 324.455578349199Q275.52102863745824 323.82333395080394 271.2533789482917 323.82333395080394L271.2533789482917 323.82333395080394Q265.72124046233506 323.82333395080394 261.05843802417166 326.2732809945848Q256.3956355860082 328.72322803836556 256.3956355860082 334.25536652432214L256.3956355860082 334.25536652432214Q256.3956355860082 337.1004663170998 258.0552771317952 339.15526061188376Q259.7149186775822 341.2100549066676 261.92777407196485 342.0003604046614L261.92777407196485 342.0003604046614L261.29552967356983 343.26484920145145Q255.92145228721196 341.36811600626635 251.89089424744355 336.310160819106Q247.86033620767518 331.25220563194574 247.86033620767518 324.13945615000154L247.86033620767518 324.13945615000154Q247.86033620767518 314.6557901740759 254.81502459002064 308.88656003872114Q261.76971297236605 303.1173299033664 271.2533789482917 303.1173299033664L271.2533789482917 303.1173299033664Q278.52418952983464 303.1173299033664 285.3998473623807 305.33018529774904Q292.2755051949268 307.5430406921317 299.7043768760685 307.5430406921317L299.7043768760685 307.5430406921317Q309.50416505119165 307.5430406921317 316.61691453313585 301.8528411065763L316.61691453313585 301.8528411065763L320.2523198239073 305.1721241981503Q311.87508154517303 311.33650708250195 307.21227910700964 315.99930952066535Q302.5494766688462 320.6621119588288 300.73177402346045 325.40394494679157Q298.9140713780747 330.14577793475445 298.9140713780747 336.94240521750106L298.9140713780747 336.94240521750106L298.9140713780747 401.9055171525915Q298.9140713780747 409.0182666345357 295.5947882865007 415.4987717180848Q292.2755051949268 421.97927680163406 285.95306121097633 426.08886539120175Q279.63061722702594 430.19845398076956 270.4630734502979 430.19845398076956ZM275.99521193625446 437.78538676151L275.99521193625446 437.78538676151Q271.0953178486929 437.78538676151 266.5115459603289 436.83702016391743Q261.92777407196485 435.8886535663249 257.6601243827983 433.6757981719423L257.6601243827983 433.6757981719423Q252.602169195638 431.1468205783621 248.1764584068727 426.08886539120175Q243.75074761810743 421.0309102040415 243.75074761810743 413.6020385228997L243.75074761810743 413.6020385228997Q243.75074761810743 407.43765563854805 247.70227510807644 402.853883750184Q251.65380259804544 398.27011186182 257.6601243827983 398.27011186182L257.6601243827983 398.27011186182Q262.56001847035986 398.27011186182 266.11639321133197 401.74745605299273Q269.67276795230407 405.22480024416546 269.67276795230407 410.12469433172697L269.67276795230407 410.12469433172697Q269.67276795230407 415.0245884192886 266.4325154105295 418.26484096106316Q263.19226286875494 421.5050935028377 258.4504298807921 421.5050935028377L258.4504298807921 421.5050935028377Q255.7633911876132 421.5050935028377 253.55053579323055 420.39866580564643L253.55053579323055 420.39866580564643Q256.23757448640947 426.2469264908005 261.8487435221655 430.11942343097013Q267.4599125579214 433.99192037113977 275.52102863745824 433.99192037113977L275.52102863745824 433.99192037113977Q279.78867832662473 433.99192037113977 285.0046946133838 432.33227882535283Q290.2207109001429 430.6726372795658 294.9625438881057 426.7211097895968Q299.7043768760685 422.76958229962776 302.7075377684449 415.8939244670817Q305.7106986608214 409.0182666345357 305.7106986608214 398.5862340610175L305.7106986608214 398.5862340610175L305.7106986608214 350.5356597829944Q305.7106986608214 338.6810773130874 307.44937075640775 331.72638893074196Q309.1880428519941 324.7717005483965 312.50732594356805 320.50405085923006Q315.82660903514204 316.2364011700635 320.5684420231048 312.8380875286902Q325.3102750110676 309.4397738873168 331.15853569622175 304.85600199895276L331.15853569622175 304.85600199895276L333.2133299910056 306.91079629373667Q329.5779247002341 310.8623237837056 328.0763442540459 317.6589510664523Q326.5747638078577 324.455578349199 326.5747638078577 337.57464961589613L326.5747638078577 337.57464961589613L326.5747638078577 381.1995131051539Q326.5747638078577 397.6378674634249 322.3071141186912 408.14893058674255Q318.0394644295246 418.65999371006006 311.40089824637676 424.7453460446123Q304.7623320632288 430.83069837916463 297.57055203148525 433.59676762214286Q290.3787719997416 436.3628368651212 284.45148076478813 437.0741118133156Q278.52418952983464 437.78538676151 275.99521193625446 437.78538676151ZM362.77075561597377 448.84966373342326L362.77075561597377 448.84966373342326Q354.70963953643695 448.84966373342326 348.94040940108226 443.396555797266Q343.1711792657275 437.94344786110884 343.1711792657275 429.7242706819732L343.1711792657275 429.7242706819732Q343.1711792657275 421.8212157020352 348.466226102286 417.2374438136712Q353.7612729388444 412.65367192530715 361.1901446199862 411.54724422811586L361.1901446199862 411.54724422811586Q365.4577943091527 405.22480024416546 366.0900387075477 396.21531756703615Q366.7222831059428 387.20583488990684 366.7222831059428 376.14155791799357L366.7222831059428 376.14155791799357L366.7222831059428 364.91921984648167L359.293411424801 364.91921984648167Q354.70963953643695 364.91921984648167 352.0226008432581 367.52722798986116Q349.3355621500791 370.13523613324065 350.28392874767167 375.0351302208023L350.28392874767167 375.0351302208023L347.28076785529527 375.0351302208023Q343.32924036532626 367.6062585396606 345.77918740910707 360.41447850791695Q348.2291344528878 353.2226984761733 354.077395138042 350.37759868339566L354.077395138042 350.37759868339566Q357.0805560304184 348.9550487870069 360.2417780223936 348.40183493841124Q363.4030000143688 347.8486210898155 366.7222831059428 347.37443779101926L366.7222831059428 347.37443779101926L366.7222831059428 343.4229103010502L366.7222831059428 343.4229103010502Q366.7222831059428 336.94240521750106 369.8044745481186 333.7811832255259Q372.88666599029443 330.61996123355067 376.20594908186837 327.4587392415754L376.20594908186837 327.4587392415754Q381.89614866742374 321.92660075561884 388.21859265137414 316.8686455684585L388.21859265137414 316.8686455684585Q385.2154317589977 317.6589510664523 382.2122708666212 317.6589510664523L382.2122708666212 317.6589510664523Q378.2607433766523 317.6589510664523 375.02049083487765 316.4734928194617Q371.7802382931031 315.28803457247096 368.46095520152915 314.10257632548024Q365.14167210995515 312.9171180784895 361.1901446199862 312.9171180784895L361.1901446199862 312.9171180784895Q357.0805560304184 312.9171180784895 354.1564256878413 315.0509429230728Q351.2322953452642 317.18476776765607 350.1258676480729 320.3459897596312L350.1258676480729 320.3459897596312L346.3324012577027 320.3459897596312Q348.38719555248656 315.28803457247096 352.10163139305746 310.54620158450814Q355.81606723362836 305.8043685965453 361.2691751697855 302.7221771543695Q366.7222831059428 299.63998571219366 373.67697148828825 299.63998571219366L373.67697148828825 299.63998571219366Q379.84135437263984 299.63998571219366 385.5315539581952 301.61574945717814Q391.22175354375054 303.5915132021627 397.3861364281022 303.5915132021627L397.3861364281022 303.5915132021627Q401.65378611726874 303.5915132021627 405.21016085824084 302.4850855049714Q408.76653559921294 301.37865780778003 411.45357429239186 299.63998571219366L411.45357429239186 299.63998571219366L411.2955131927931 303.7495743017614Q409.7149021968055 304.85600199895276 408.13429120081787 305.8043685965453Q406.5536802048303 306.75273519413787 404.9730692088427 307.8591628913292L404.9730692088427 307.8591628913292Q403.7085804120526 308.8075294889218 402.2860305156638 309.7558960865143Q400.8634806192749 310.7042626841069 399.4409307228861 311.6526292816995L399.4409307228861 311.6526292816995Q394.06685333652825 315.7622178712672 390.5895091453555 321.53144800662193Q387.11216495418284 327.3006781419767 387.11216495418284 337.57464961589613L387.11216495418284 337.57464961589613L387.11216495418284 359.8612646593213L387.11216495418284 389.89287358308565Q387.11216495418284 396.53143976623363 381.26390426902867 401.9055171525915Q375.41564358387456 407.2795945389493 368.9351385003254 411.3891831285171L368.9351385003254 411.3891831285171Q374.6253380858808 411.7053053277146 380.23650712163675 412.65367192530715Q385.8476761573927 413.6020385228997 391.37981464334933 414.07622182169604L391.37981464334933 414.07622182169604Q394.857158834522 411.86336642731334 394.857158834522 405.8570446425604L394.857158834522 405.8570446425604L394.857158834522 325.8781282455879L425.5210121566815 298.8496802141999Q431.0531506426381 302.6431466045701 437.05947242739103 305.6463074969465Q443.06579421214394 308.64946838932303 450.0204825944893 310.8623237837056L450.0204825944893 310.8623237837056L455.07843778164965 306.2785518953416L459.50414857041494 309.5978349869156L440.06263331976743 328.72322803836556Q433.74018933581704 326.9845559427792 427.8919286506629 324.13945615000154Q422.0436679655088 321.29435635722376 417.14377387794724 317.81701216605114L417.14377387794724 317.81701216605114L417.14377387794724 346.7421933926242L448.75599379769926 346.7421933926242L430.7370284434406 365.23534204567915L417.14377387794724 365.23534204567915L417.14377387794724 387.8380792883018Q417.14377387794724 387.8380792883018 413.9035213361726 392.0266984276689Q410.66326879439805 396.21531756703615 405.60531360723775 402.4587310011871Q400.54735842007744 408.7021444353382 395.0152199341208 415.0245884192886Q389.48308144816417 421.347032403239 384.89930955980014 425.4566209928068L384.89930955980014 425.4566209928068Q382.2122708666212 427.8275374867881 377.5494684284578 429.40814848277574Q372.88666599029443 430.98875947876337 368.1448330023316 431.1468205783621L368.1448330023316 431.1468205783621L363.5610611139675 431.1468205783621Q360.3998391219924 431.1468205783621 358.1869837276097 432.72743157434974Q355.9741283332271 434.30804257033725 355.9741283332271 436.99508126351617L355.9741283332271 436.99508126351617Q355.9741283332271 439.6821199566951 358.02892262801095 442.13206700047596Q360.0837169227948 444.5820140442567 363.0868778151713 444.5820140442567L363.0868778151713 444.5820140442567L363.0868778151713 448.6916026338245Q362.92881671557257 448.84966373342326 362.77075561597377 448.84966373342326Z " fill="#072c50" transform="matrix(0.6758189685136998,0,0,0.6758189685136997,0,47.34530211188475)"/><path d="M628.3397671758838 430.19845398076956L628.3397671758838 430.19845398076956L628.3397671758838 424.98243769401046Q631.6590502674578 424.0340710964179 633.792875112041 421.58412405263715Q635.9266999566244 419.1341770088563 635.9266999566244 414.86652731968985L635.9266999566244 414.86652731968985L635.9266999566244 373.928702523611L631.9751724666553 373.928702523611Q627.54946167789 373.928702523611 624.8624229847111 376.220588467793Q622.1753842915322 378.512474411975 622.965689789526 382.9381852007403L622.965689789526 382.9381852007403L619.9625288971495 382.9381852007403Q617.4335513035694 378.67053551157375 617.4335513035694 373.77064142401224L617.4335513035694 373.77064142401224Q617.4335513035694 367.290136340463 620.4367121959458 363.6547310496915Q623.4398730883222 360.01932575892005 627.7075227774887 358.3596842131331Q631.9751724666553 356.70004266734605 635.9266999566244 356.0677982689511L635.9266999566244 356.0677982689511L635.9266999566244 349.90341538459944Q635.9266999566244 345.6357656954329 637.1121582036151 342.15842150426016Q638.2976164506057 338.6810773130874 642.3281744903741 334.57148872351974Q646.3587325301424 330.46190013395193 654.7359708088768 324.2975172496003L654.7359708088768 324.2975172496003Q650.626382219309 325.0878227475941 646.042610330945 325.0878227475941L646.042610330945 325.0878227475941Q641.6168995421797 325.0878227475941 637.507310952612 324.455578349199Q633.3977223630441 323.82333395080394 629.1300726738776 323.82333395080394L629.1300726738776 323.82333395080394Q623.597934187921 323.82333395080394 618.9351317497576 326.2732809945848Q614.2723293115941 328.72322803836556 614.2723293115941 334.25536652432214L614.2723293115941 334.25536652432214Q614.2723293115941 337.1004663170998 615.9319708573812 339.15526061188376Q617.5916124031681 341.2100549066676 619.8044677975508 342.0003604046614L619.8044677975508 342.0003604046614L619.1722233991557 343.26484920145145Q613.7981460127978 341.36811600626635 609.7675879730295 336.310160819106Q605.737029933261 331.25220563194574 605.737029933261 324.13945615000154L605.737029933261 324.13945615000154Q605.737029933261 314.6557901740759 612.6917183156065 308.88656003872114Q619.646406697952 303.1173299033664 629.1300726738776 303.1173299033664L629.1300726738776 303.1173299033664Q636.4008832554206 303.1173299033664 643.2765410879666 305.33018529774904Q650.1521989205128 307.5430406921317 657.5810706016545 307.5430406921317L657.5810706016545 307.5430406921317Q667.3808587767776 307.5430406921317 674.4936082587218 301.8528411065763L674.4936082587218 301.8528411065763L678.1290135494933 305.1721241981503Q669.751775270759 311.33650708250195 665.0889728325956 315.99930952066535Q660.4261703944321 320.6621119588288 658.6084677490464 325.40394494679157Q656.7907651036606 330.14577793475445 656.7907651036606 336.94240521750106L656.7907651036606 336.94240521750106L656.7907651036606 401.9055171525915Q656.7907651036606 409.0182666345357 653.4714820120867 415.4987717180848Q650.1521989205128 421.97927680163406 643.8297549365623 426.08886539120175Q637.507310952612 430.19845398076956 628.3397671758838 430.19845398076956ZM633.8719056618404 437.78538676151L633.8719056618404 437.78538676151Q628.9720115742789 437.78538676151 624.3882396859149 436.83702016391743Q619.8044677975508 435.8886535663249 615.5368181083843 433.6757981719423L615.5368181083843 433.6757981719423Q610.4788629212239 431.1468205783621 606.0531521324586 426.08886539120175Q601.6274413436934 421.0309102040415 601.6274413436934 413.6020385228997L601.6274413436934 413.6020385228997Q601.6274413436934 407.43765563854805 605.5789688336624 402.853883750184Q609.5304963236314 398.27011186182 615.5368181083843 398.27011186182L615.5368181083843 398.27011186182Q620.4367121959458 398.27011186182 623.993086936918 401.74745605299273Q627.54946167789 405.22480024416546 627.54946167789 410.12469433172697L627.54946167789 410.12469433172697Q627.54946167789 415.0245884192886 624.3092091361154 418.26484096106316Q621.0689565943409 421.5050935028377 616.3271236063781 421.5050935028377L616.3271236063781 421.5050935028377Q613.6400849131992 421.5050935028377 611.4272295188165 420.39866580564643L611.4272295188165 420.39866580564643Q614.1142682119954 426.2469264908005 619.7254372477514 430.11942343097013Q625.3366062835073 433.99192037113977 633.3977223630441 433.99192037113977L633.3977223630441 433.99192037113977Q637.6653720522106 433.99192037113977 642.8813883389698 432.33227882535283Q648.0974046257288 430.6726372795658 652.8392376136917 426.7211097895968Q657.5810706016545 422.76958229962776 660.5842314940309 415.8939244670817Q663.5873923864074 409.0182666345357 663.5873923864074 398.5862340610175L663.5873923864074 398.5862340610175L663.5873923864074 350.5356597829944Q663.5873923864074 338.6810773130874 665.3260644819936 331.72638893074196Q667.0647365775801 324.7717005483965 670.384019669154 320.50405085923006Q673.703302760728 316.2364011700635 678.4451357486907 312.8380875286902Q683.1869687366536 309.4397738873168 689.0352294218077 304.85600199895276L689.0352294218077 304.85600199895276L691.0900237165915 306.91079629373667Q687.4546184258201 310.8623237837056 685.9530379796319 317.6589510664523Q684.4514575334437 324.455578349199 684.4514575334437 337.57464961589613L684.4514575334437 337.57464961589613L684.4514575334437 381.1995131051539Q684.4514575334437 397.6378674634249 680.1838078442771 408.14893058674255Q675.9161581551107 418.65999371006006 669.2775919719627 424.7453460446123Q662.6390257888147 430.83069837916463 655.4472457570712 433.59676762214286Q648.2554657253277 436.3628368651212 642.3281744903741 437.0741118133156Q636.4008832554206 437.78538676151 633.8719056618404 437.78538676151ZM704.0510338836899 406.8054112401531L697.5705288001408 412.0214275269121L694.7254290073631 408.7021444353382L702.7865450868998 402.0635782521902L702.7865450868998 361.44187565530893L738.3502924966208 341.05199380706887L761.1110908388423 358.4387147629324L761.1110908388423 401.589394953394L726.3376489271151 422.76958229962776L704.0510338836899 406.8054112401531ZM723.3344880347387 398.5862340610175L741.511514488596 410.75693873012204L741.511514488596 365.23534204567915L723.3344880347387 353.0646373765746L723.3344880347387 398.5862340610175ZM835.2417465506608 404.1183725469742L799.6779991409397 424.3501932956154L775.8107731015269 409.96663323212823L769.6463902171753 413.76009962249844L767.4335348227927 410.75693873012204L778.0236284959096 403.9603114473753L778.0236284959096 330.3038390343532Q778.0236284959096 327.61680034117427 776.6801091493202 325.5620060463903Q775.3365898027307 323.50721175160646 770.4366957151691 322.0846618552176L770.4366957151691 322.0846618552176L770.4366957151691 319.71374536123625L796.200654949767 301.53671890737877L799.2038158421434 301.53671890737877L799.2038158421434 355.2774927709573L819.1195143915872 342.15842150426016L835.2417465506608 357.3322870657411L835.2417465506608 404.1183725469742ZM799.2038158421434 360.4935090577164L799.2038158421434 401.589394953394L815.8002313000133 411.2311220289184L815.8002313000133 365.70952534447537L806.3165653240877 355.7516760697535L799.2038158421434 360.4935090577164ZM869.8571273627892 448.84966373342326L869.8571273627892 448.84966373342326Q861.7960112832525 448.84966373342326 856.0267811478976 443.396555797266Q850.257551012543 437.94344786110884 850.257551012543 429.7242706819732L850.257551012543 429.7242706819732Q850.257551012543 421.8212157020352 855.5525978491014 417.2374438136712Q860.8476446856599 412.65367192530715 868.2765163668017 411.54724422811586L868.2765163668017 411.54724422811586Q872.544166055968 405.22480024416546 873.1764104543632 396.21531756703615Q873.8086548527582 387.20583488990684 873.8086548527582 376.14155791799357L873.8086548527582 376.14155791799357L873.8086548527582 364.91921984648167L866.3797831716165 364.91921984648167Q861.7960112832525 364.91921984648167 859.1089725900734 367.52722798986116Q856.4219338968946 370.13523613324065 857.3703004944872 375.0351302208023L857.3703004944872 375.0351302208023L854.3671396021108 375.0351302208023Q850.4156121121417 367.6062585396606 852.8655591559225 360.41447850791695Q855.3155061997033 353.2226984761733 861.1637668848574 350.37759868339566L861.1637668848574 350.37759868339566Q864.1669277772338 348.9550487870069 867.3281497692091 348.40183493841124Q870.4893717611843 347.8486210898155 873.8086548527582 347.37443779101926L873.8086548527582 347.37443779101926L873.8086548527582 343.4229103010502L873.8086548527582 343.4229103010502Q873.8086548527582 336.94240521750106 876.890846294934 333.7811832255259Q879.9730377371098 330.61996123355067 883.2923208286837 327.4587392415754L883.2923208286837 327.4587392415754Q888.9825204142393 321.92660075561884 895.3049643981896 316.8686455684585L895.3049643981896 316.8686455684585Q892.3018035058132 317.6589510664523 889.2986426134368 317.6589510664523L889.2986426134368 317.6589510664523Q885.3471151234677 317.6589510664523 882.1068625816931 316.4734928194617Q878.8666100399186 315.28803457247096 875.5473269483446 314.10257632548024Q872.2280438567706 312.9171180784895 868.2765163668017 312.9171180784895L868.2765163668017 312.9171180784895Q864.1669277772338 312.9171180784895 861.2427974346568 315.0509429230728Q858.3186670920797 317.18476776765607 857.2122393948885 320.3459897596312L857.2122393948885 320.3459897596312L853.4187730045181 320.3459897596312Q855.4735672993021 315.28803457247096 859.1880031398729 310.54620158450814Q862.9024389804438 305.8043685965453 868.3555469166009 302.7221771543695Q873.8086548527582 299.63998571219366 880.7633432351037 299.63998571219366L880.7633432351037 299.63998571219366Q886.9277261194553 299.63998571219366 892.6179257050106 301.61574945717814Q898.308125290566 303.5915132021627 904.4725081749176 303.5915132021627L904.4725081749176 303.5915132021627Q908.7401578640842 303.5915132021627 912.2965326050563 302.4850855049714Q915.8529073460284 301.37865780778003 918.5399460392074 299.63998571219366L918.5399460392074 299.63998571219366L918.3818849396085 303.7495743017614Q916.8012739436209 304.85600199895276 915.2206629476333 305.8043685965453Q913.6400519516458 306.75273519413787 912.0594409556583 307.8591628913292L912.0594409556583 307.8591628913292Q910.7949521588681 308.8075294889218 909.3724022624792 309.7558960865143Q907.9498523660903 310.7042626841069 906.5273024697016 311.6526292816995L906.5273024697016 311.6526292816995Q901.1532250833437 315.7622178712672 897.675880892171 321.53144800662193Q894.1985367009983 327.3006781419767 894.1985367009983 337.57464961589613L894.1985367009983 337.57464961589613L894.1985367009983 359.8612646593213L894.1985367009983 389.89287358308565Q894.1985367009983 396.53143976623363 888.3502760158441 401.9055171525915Q882.50201533069 407.2795945389493 876.0215102471409 411.3891831285171L876.0215102471409 411.3891831285171Q881.7117098326962 411.7053053277146 887.3228788684522 412.65367192530715Q892.9340479042081 413.6020385228997 898.4661863901648 414.07622182169604L898.4661863901648 414.07622182169604Q901.9435305813375 411.86336642731334 901.9435305813375 405.8570446425604L901.9435305813375 405.8570446425604L901.9435305813375 325.8781282455879L932.607383903497 298.8496802141999Q938.1395223894536 302.6431466045701 944.1458441742064 305.6463074969465Q950.1521659589594 308.64946838932303 957.1068543413047 310.8623237837056L957.1068543413047 310.8623237837056L962.1648095284651 306.2785518953416L966.5905203172305 309.5978349869156L947.1490050665828 328.72322803836556Q940.8265610826326 326.9845559427792 934.9783003974784 324.13945615000154Q929.1300397123242 321.29435635722376 924.2301456247627 317.81701216605114L924.2301456247627 317.81701216605114L924.2301456247627 346.7421933926242L955.8423655445147 346.7421933926242L937.823400190256 365.23534204567915L924.2301456247627 365.23534204567915L924.2301456247627 387.8380792883018Q924.2301456247627 387.8380792883018 920.989893082988 392.0266984276689Q917.7496405412135 396.21531756703615 912.6916853540532 402.4587310011871Q907.6337301668929 408.7021444353382 902.1015916809363 415.0245884192886Q896.5694531949797 421.347032403239 891.9856813066157 425.4566209928068L891.9856813066157 425.4566209928068Q889.2986426134368 427.8275374867881 884.6358401752733 429.40814848277574Q879.9730377371098 430.98875947876337 875.2312047491471 431.1468205783621L875.2312047491471 431.1468205783621L870.6474328607829 431.1468205783621Q867.4862108688078 431.1468205783621 865.2733554744251 432.72743157434974Q863.0605000800425 434.30804257033725 863.0605000800425 436.99508126351617L863.0605000800425 436.99508126351617Q863.0605000800425 439.6821199566951 865.1152943748265 442.13206700047596Q867.1700886696102 444.5820140442567 870.1732495619868 444.5820140442567L870.1732495619868 444.5820140442567L870.1732495619868 448.6916026338245Q870.015188462388 448.84966373342326 869.8571273627892 448.84966373342326ZM988.8771353606555 322.5588451540139L973.7032697991746 335.67791642071103L960.26807633328 320.3459897596312L975.4419418947609 307.22691849293415L988.8771353606555 322.5588451540139ZM1001.0478400297601 407.5957167381468L978.2870416875386 423.55988779762157L963.1131761260576 409.96663323212823L957.7390987396998 413.76009962249844L955.5262433453171 410.75693873012204L965.3260315204403 403.8022503477766L965.3260315204403 362.23218115330275L960.1100152336813 355.435553870556L953.9456323493297 359.22902026092623L951.7327769549469 356.0677982689511L972.9129643011808 341.6842382054638L985.0836689702853 356.0677982689511L985.0836689702853 403.8022503477766L990.2996852570444 409.1763277341344L997.2543736393899 404.5925558457704L1001.0478400297601 407.5957167381468ZM1041.1953593278452 411.3891831285171L1026.021493766364 425.1404987936092L1007.8444673125068 410.75693873012204L1013.8507890972597 405.3828613437642L1013.8507890972597 363.33860885049404L1007.8444673125068 356.5419815677473L1001.6800844281552 360.3354479581175L999.4672290337725 357.3322870657411L1021.4377218780002 342.15842150426016L1033.6084265471047 355.7516760697535L1050.9951475029684 342.15842150426016L1068.8560517576282 357.49034816533987L1075.4946179407762 352.116270778982L1078.3397177335537 355.59361497015476L1070.7527849528133 361.7579978545064L1070.7527849528133 403.1700059493815L1077.5494122355599 409.1763277341344L1083.5557340203127 404.5925558457704L1086.5588949126893 409.1763277341344L1063.1658521720728 425.1404987936092L1047.2016811125982 410.75693873012204L1052.575758498956 405.3828613437642L1052.575758498956 366.34176974287044L1041.1953593278452 356.5419815677473L1034.3987320450983 361.91605895410515L1034.3987320450983 405.3828613437642L1041.1953593278452 411.3891831285171ZM1152.7864956445696 403.64418924817784L1118.1711148324412 424.19213219601664L1095.4103164902199 408.54408333573946L1095.4103164902199 360.01932575892005L1114.5357095416698 348.1647432890131L1099.6779661793862 334.57148872351974L1096.5167441874112 335.04567202231596L1096.5167441874112 306.75273519413787L1151.0478235489834 354.80330947216095L1156.8960842341376 350.0614764841982L1159.5831229273165 353.3807595757722L1152.9445567441685 358.91289806172875L1152.7864956445696 403.64418924817784ZM1115.80019833846 349.1131098866056L1115.80019833846 400.32490615660384L1132.5546748959287 411.86336642731334L1132.5546748959287 364.44503654768533L1115.80019833846 349.1131098866056ZM1172.7021941940134 406.96347233975183L1165.5894447120695 412.4956108257084L1162.9024060188904 409.1763277341344L1170.3312777000322 403.01194484978276L1170.3312777000322 361.44187565530893L1208.2659416037345 341.6842382054638L1224.0720515636108 366.02564754367296L1224.0720515636108 366.65789194206803L1190.0889151498773 387.99614038790054L1190.0889151498773 394.79276767064727L1209.0562471017283 407.5957167381468L1226.4429680575922 394.00246217265345L1228.6558234519748 397.79592856302366L1196.09523693463 424.3501932956154L1172.7021941940134 406.96347233975183ZM1193.0920760422537 353.8549428745684L1190.0889151498773 355.59361497015476L1190.0889151498773 382.46400190194396L1205.895025109753 372.5061526272221L1193.0920760422537 353.8549428745684ZM1282.554658415152 406.4892890409555L1259.0035545749365 423.55988779762157L1241.616833619073 409.96663323212823L1236.2427562327152 413.76009962249844L1234.0299008383327 410.75693873012204L1243.8296890134557 403.8022503477766L1243.8296890134557 362.23218115330275L1238.6136727266967 355.435553870556L1232.449289842345 359.22902026092623L1230.236434447962 356.0677982689511L1251.416621794196 341.6842382054638L1263.1131431645044 354.171065073766L1274.019359036819 341.6842382054638L1275.7580311324054 341.6842382054638Q1278.1289476263864 345.6357656954329 1282.8707806143493 345.6357656954329L1282.8707806143493 345.6357656954329Q1285.2416971083308 345.6357656954329 1287.0593997537167 344.4503074484422Q1288.8771023991021 343.26484920145145 1289.9835300962936 341.6842382054638L1289.9835300962936 341.6842382054638L1294.7253630842565 341.6842382054638Q1293.7769964866638 351.48402638058695 1290.8528661440869 356.22585936854983Q1287.9287358015094 360.9676923565126 1284.6094527099358 362.3902422529015Q1281.2901696183617 363.81279214929026 1278.9192531243802 363.81279214929026L1278.9192531243802 363.81279214929026Q1276.3902755308 363.81279214929026 1272.5177785906308 362.3902422529015Q1268.6452816504607 360.9676923565126 1264.851815260091 357.1742259661424L1264.851815260091 357.1742259661424L1264.851815260091 403.8022503477766L1271.0161981444426 408.7021444353382L1279.5514975227757 403.01194484978276L1282.554658415152 406.4892890409555Z " fill="#072c50" transform="matrix(0.6758189685136998,0,0,0.6758189685136997,0,47.34530211188475)"/></g></svg>